<?xml version="1.0" standalone="no"?>
<!DOCTYPE svg PUBLIC "-//W3C//DTD SVG 1.1//EN" "http://www.w3.org/Graphics/SVG/1.1/DTD/svg11.dtd">
<svg class="icon" height="20" viewBox="0 0 1058 1024" version="1.1" 
  xmlns="http://www.w3.org/2000/svg">
  <path d="M519.271656 0h21.642209c11.88908 2.999755 23.919509 6.753374 33.939632 14.056442 10.899632 7.460123 19.474847 17.998528 25.066012 29.919018 39.530798 82.029939 79.077301 164.059877 118.529571 246.121227 14.386258 2.795583 28.976687 4.224785 43.410061 6.659141 75.135215 11.135215 150.239018 22.427485 225.374233 33.468466 6.973252 1.083681 13.977914 2.261595 20.652761 4.66454 20.527117 7.36589 37.740368 23.919509 45.16908 44.525154 7.522945 20.071656 5.606871 43.535706-5.339878 62.005399-5.010061 8.810798-12.34454 15.909693-19.506257 22.961472-63.104785 63.041963-126.35092 125.942577-189.408589 189.031656-2.968344 2.669939-3.769325 6.659141-2.921227 10.459878 15.344294 89.694233 30.107485 179.51411 45.200491 269.25546 2.088834 12.250307 1.96319 25.081718-2.088835 36.955092-6.439264 20.511411-22.427485 37.583313-42.263558 45.765889-16.490798 7.22454-35.447362 7.837055-52.692025 3.031166-9.093497-2.607117-17.307485-7.444417-25.6-11.88908-74.145767-40.080491-148.495706-79.81546-222.57865-120.005889-3.203926-1.916074-7.130307-2.591411-10.397055-0.439755-71.758528 38.824049-143.689816 77.349693-215.464049 116.142331-12.234601 6.360736-24.029448 14.134969-37.63043 17.260368-23.275583 5.653988-49.079755-0.094233-67.47092-15.501349-14.590429-11.873374-24.280736-29.510675-26.636564-48.153129-1.853252-15.030184 2.324417-29.777669 4.648834-44.493742 13.805153-83.082209 27.751656-166.148712 41.682454-249.19951 1.617669-6.580613-4.444663-10.852515-8.402454-14.983067-62.555092-60.98454-123.696687-123.398282-185.733497-184.91681-5.544049-5.481227-11.103804-11.056687-15.407116-17.590184-11.307975-16.946258-15.108712-38.698405-9.988712-58.440245 5.324172-21.265276 20.746994-39.562209 40.551656-48.828467 13.522454-6.737669 28.835337-7.491534 43.472884-9.9573 84.260123-12.517301 168.535951-24.971779 252.764662-37.646135 39.577914-82.014233 79.014479-164.106994 118.576687-246.121227 5.622577-11.873374 14.134969-22.364663 24.924663-29.903313 10.035828-7.303067 22.066258-11.025276 33.923926-14.213497m-3.580858 94.767117c-42.247853 87.526871-84.448589 175.069448-126.665031 262.612024-106.750429 16.255215-213.642209 31.568098-320.361227 47.917546 5.167117 6.423558 11.229448 12.014724 17.087607 17.825767 68.193374 68.428957 136.763681 136.496687 205.098405 204.8 3.518037 4.020613 10.09865 7.522945 8.622331 13.789448-15.454233 93.369325-31.269693 186.675828-46.84957 280.013742-2.10454 13.11411-4.900123 26.133988-6.203681 39.373743 32.54184-17.00908 64.706748-34.724908 97.091534-52.016688 60.623313-32.68319 121.37227-65.146503 181.917055-97.986748 2.591411-1.50773 5.748221-2.277301 8.418159-0.45546 93.369325 50.132025 186.581595 100.609571 280.09227 150.474601-3.785031-28.081472-9.32908-55.895951-13.679509-83.88319-13.239755-78.433374-26.212515-156.913865-39.483681-235.331534-0.251288-2.371534-0.59681-5.182822 1.523436-6.847607 36.829448-36.43681 73.313374-73.250552 110.017178-109.828712 39.782086-40.206135 80.632147-79.344294 120.100122-119.86454-106.954601-16.365153-214.097669-31.583804-321.05227-48.074601-47.053742-97.232883-93.683436-194.685644-140.925644-291.824295-5.622577 9.391902-9.957301 19.474847-14.747484 29.306504z" />
</svg>