<?xml version="1.0" standalone="no"?>
<!DOCTYPE svg PUBLIC "-//W3C//DTD SVG 20010904//EN"
 "http://www.w3.org/TR/2001/REC-SVG-20010904/DTD/svg10.dtd">
<svg version="1.0" xmlns="http://www.w3.org/2000/svg"
   viewBox="0 0 980.000000 648.000000"
 preserveAspectRatio="xMidYMid meet">
<metadata>
Created by potrace 1.13, written by Peter Selinger 2001-2015
</metadata>
<g transform="translate(0.000000,648.000000) scale(0.100000,-0.100000)"
fill="#000000" stroke="none">
<path d="M4530 6464 c-318 -28 -601 -70 -853 -129 -854 -198 -1686 -634 -2373
-1242 -583 -515 -1082 -1179 -1265 -1679 -59 -163 -45 -270 72 -522 111 -240
339 -584 575 -868 582 -701 1350 -1273 2158 -1608 484 -201 942 -319 1491
-383 217 -25 914 -25 1130 0 695 82 1246 245 1845 547 738 373 1397 919 1926
1596 99 127 289 409 363 541 104 184 187 391 197 492 23 213 -276 759 -682
1247 -863 1038 -2039 1728 -3313 1944 -301 51 -437 62 -841 65 -212 1 -405 1
-430 -1z m773 -1038 c436 -71 769 -211 1054 -443 388 -314 621 -771 699 -1370
24 -176 24 -570 0 -746 -57 -434 -188 -778 -406 -1067 -311 -411 -769 -659
-1385 -752 -60 -8 -186 -13 -375 -13 -267 1 -295 2 -444 29 -476 83 -840 261
-1132 551 -317 316 -501 718 -570 1252 -21 158 -24 549 -6 708 55 473 215 874
473 1182 316 376 806 616 1394 683 125 14 582 5 698 -14z"/>
<path d="M4833 4479 c-500 -58 -965 -424 -1112 -875 -42 -130 -56 -222 -55
-374 1 -345 124 -639 369 -885 243 -244 544 -375 860 -375 239 0 460 69 671
210 102 68 275 243 343 345 136 207 211 446 211 672 0 86 -2 96 -24 118 -57
57 -184 47 -552 -43 -305 -76 -434 -98 -518 -89 -117 12 -157 64 -164 212 -5
115 15 213 113 555 41 143 80 300 86 349 11 80 11 91 -7 127 -31 64 -63 71
-221 53z"/>
</g>
</svg>
